<svg xmlns="http://www.w3.org/2000/svg" viewBox="0 0 287.19 197.09"><defs><style>.cls-1{fill:#fff;}.cls-2{fill:#b32235;}.cls-3{fill:#3c3b6e;}</style></defs><g id="Capa_3" data-name="Capa 3"><g id="Grupo_194" data-name="Grupo 194"><g id="Grupo_195" data-name="Grupo 195"><rect id="Rectángulo_131" data-name="Rectángulo 131" class="cls-1" x="7.39" y="3.81" width="272.43" height="189.48"/><rect id="Rectángulo_132" data-name="Rectángulo 132" class="cls-2" x="7.39" y="3.1" width="272.12" height="14.99"/><rect id="Rectángulo_133" data-name="Rectángulo 133" class="cls-2" x="7.39" y="32.42" width="272.12" height="14.99"/><rect id="Rectángulo_134" data-name="Rectángulo 134" class="cls-2" x="7.39" y="61.73" width="272.12" height="14.99"/><rect id="Rectángulo_135" data-name="Rectángulo 135" class="cls-2" x="7.39" y="91.05" width="272.12" height="14.99"/><rect id="Rectángulo_136" data-name="Rectángulo 136" class="cls-2" x="7.39" y="120.37" width="272.12" height="14.99"/><rect id="Rectángulo_137" data-name="Rectángulo 137" class="cls-2" x="7.39" y="149.69" width="272.12" height="14.99"/><rect id="Rectángulo_138" data-name="Rectángulo 138" class="cls-2" x="7.39" y="179.01" width="272.12" height="14.99"/><rect id="Rectángulo_139" data-name="Rectángulo 139" class="cls-3" x="7.38" y="3.1" width="144.37" height="102.94"/><g id="Grupo_194-2" data-name="Grupo 194-2"><path id="Trazado_160" data-name="Trazado 160" class="cls-1" d="M19.67,7,21,11.28h4.37l-3.54,2.6,1.35,4.25-3.53-2.6-3.54,2.6,1.35-4.25L14,11.28h4.37Z"/><path id="Trazado_161" data-name="Trazado 161" class="cls-1" d="M31.56,17.6l1.34,4.24h4.38l-3.54,2.6,1.35,4.25-3.53-2.6L28,28.69l1.35-4.25-3.54-2.6h4.38Z"/><path id="Trazado_162" data-name="Trazado 162" class="cls-1" d="M31.56,38.23l1.34,4.25h4.38l-3.54,2.6,1.35,4.24-3.53-2.6L28,49.32l1.35-4.24-3.54-2.6h4.38Z"/><path id="Trazado_163" data-name="Trazado 163" class="cls-1" d="M31.56,58.88l1.34,4.24h4.38l-3.54,2.6L35.09,70l-3.53-2.6L28,70l1.35-4.25-3.54-2.6h4.38Z"/><path id="Trazado_164" data-name="Trazado 164" class="cls-1" d="M31.56,79.51l1.34,4.25h4.38l-3.54,2.6,1.35,4.25L31.56,88,28,90.61l1.35-4.25-3.54-2.6h4.38Z"/><path id="Trazado_165" data-name="Trazado 165" class="cls-1" d="M55.68,17.6,57,21.84H61.4l-3.53,2.6,1.35,4.25-3.54-2.6-3.53,2.6,1.35-4.25L50,21.84h4.38Z"/><path id="Trazado_166" data-name="Trazado 166" class="cls-1" d="M55.68,38.23,57,42.48H61.4l-3.53,2.6,1.35,4.24-3.54-2.6-3.53,2.6,1.35-4.24L50,42.48h4.38Z"/><path id="Trazado_167" data-name="Trazado 167" class="cls-1" d="M55.68,58.88,57,63.12H61.4l-3.53,2.6L59.22,70l-3.54-2.6L52.15,70l1.35-4.25L50,63.12h4.38Z"/><path id="Trazado_168" data-name="Trazado 168" class="cls-1" d="M55.68,79.51,57,83.76H61.4l-3.53,2.6,1.35,4.25L55.68,88l-3.53,2.6,1.35-4.25L50,83.76h4.38Z"/><path id="Trazado_169" data-name="Trazado 169" class="cls-1" d="M79.79,17.6l1.35,4.24h4.37L82,24.44l1.34,4.25-3.53-2.6-3.54,2.6,1.35-4.25-3.53-2.6h4.37Z"/><path id="Trazado_170" data-name="Trazado 170" class="cls-1" d="M79.79,38.23l1.35,4.25h4.37L82,45.08l1.34,4.24-3.53-2.6-3.54,2.6,1.35-4.24-3.53-2.6h4.37Z"/><path id="Trazado_171" data-name="Trazado 171" class="cls-1" d="M79.79,58.88l1.35,4.24h4.37L82,65.72,83.32,70l-3.53-2.6L76.25,70l1.35-4.25-3.53-2.6h4.37Z"/><path id="Trazado_172" data-name="Trazado 172" class="cls-1" d="M79.79,79.51l1.35,4.25h4.37L82,86.36l1.34,4.25L79.79,88l-3.54,2.6,1.35-4.25-3.53-2.6h4.37Z"/><path id="Trazado_173" data-name="Trazado 173" class="cls-1" d="M103.92,17.6l1.35,4.24h4.37l-3.54,2.6,1.35,4.25-3.53-2.6-3.54,2.6,1.35-4.25-3.53-2.6h4.37Z"/><path id="Trazado_174" data-name="Trazado 174" class="cls-1" d="M103.92,38.23l1.35,4.25h4.37l-3.54,2.6,1.35,4.24-3.53-2.6-3.54,2.6,1.35-4.24-3.53-2.6h4.37Z"/><path id="Trazado_175" data-name="Trazado 175" class="cls-1" d="M103.92,58.88l1.35,4.24h4.37l-3.54,2.6L107.45,70l-3.53-2.6L100.38,70l1.35-4.25-3.53-2.6h4.37Z"/><path id="Trazado_176" data-name="Trazado 176" class="cls-1" d="M103.92,79.51l1.35,4.25h4.37l-3.54,2.6,1.35,4.25L103.92,88l-3.54,2.6,1.35-4.25-3.53-2.6h4.37Z"/><path id="Trazado_177" data-name="Trazado 177" class="cls-1" d="M128,17.6l1.35,4.24h4.38l-3.54,2.6,1.35,4.25L128,26.09l-3.53,2.6,1.35-4.25-3.54-2.6h4.38Z"/><path id="Trazado_178" data-name="Trazado 178" class="cls-1" d="M128,38.23l1.35,4.25h4.38l-3.54,2.6,1.35,4.24L128,46.72l-3.53,2.6,1.35-4.24-3.54-2.6h4.38Z"/><path id="Trazado_179" data-name="Trazado 179" class="cls-1" d="M128,58.88l1.35,4.24h4.38l-3.54,2.6L131.57,70,128,67.37,124.5,70l1.35-4.25-3.54-2.6h4.38Z"/><path id="Trazado_180" data-name="Trazado 180" class="cls-1" d="M128,79.51l1.35,4.25h4.38l-3.54,2.6,1.35,4.25L128,88l-3.53,2.6,1.35-4.25-3.54-2.6h4.38Z"/><path id="Trazado_181" data-name="Trazado 181" class="cls-1" d="M19.67,27.63,21,31.87h4.37l-3.54,2.6,1.35,4.25-3.53-2.6-3.54,2.6,1.35-4.25L14,31.87h4.37Z"/><path id="Trazado_182" data-name="Trazado 182" class="cls-1" d="M19.67,48.32,21,52.56h4.37l-3.54,2.6,1.35,4.25-3.53-2.6-3.54,2.6,1.35-4.25L14,52.56h4.37Z"/><path id="Trazado_183" data-name="Trazado 183" class="cls-1" d="M19.67,69,21,73.2h4.37l-3.54,2.6L23.2,80l-3.53-2.6L16.13,80l1.35-4.24L14,73.2h4.37Z"/><path id="Trazado_184" data-name="Trazado 184" class="cls-1" d="M19.67,89.59,21,93.83h4.37l-3.54,2.6,1.35,4.25-3.53-2.6-3.54,2.6,1.35-4.25L14,93.83h4.37Z"/><path id="Trazado_185" data-name="Trazado 185" class="cls-1" d="M43.43,7l1.35,4.24h4.38l-3.54,2.6L47,18.13l-3.54-2.6-3.53,2.6,1.35-4.25-3.54-2.6h4.38Z"/><path id="Trazado_186" data-name="Trazado 186" class="cls-1" d="M43.43,27.63l1.35,4.24h4.38l-3.54,2.6L47,38.72l-3.54-2.6-3.53,2.6,1.35-4.25-3.54-2.6h4.38Z"/><path id="Trazado_187" data-name="Trazado 187" class="cls-1" d="M43.43,48.32l1.35,4.24h4.38l-3.54,2.6L47,59.41l-3.54-2.6-3.53,2.6,1.35-4.25-3.54-2.6h4.38Z"/><path id="Trazado_188" data-name="Trazado 188" class="cls-1" d="M43.43,69l1.35,4.25h4.38l-3.54,2.6L47,80l-3.54-2.6L39.9,80l1.35-4.24-3.54-2.6h4.38Z"/><path id="Trazado_189" data-name="Trazado 189" class="cls-1" d="M43.43,89.59l1.35,4.24h4.38l-3.54,2.6L47,100.68l-3.54-2.6-3.53,2.6,1.35-4.25-3.54-2.6h4.38Z"/><path id="Trazado_190" data-name="Trazado 190" class="cls-1" d="M67.9,7l1.35,4.24h4.37l-3.53,2.6,1.35,4.25-3.54-2.6-3.53,2.6,1.34-4.25-3.53-2.6h4.37Z"/><path id="Trazado_191" data-name="Trazado 191" class="cls-1" d="M67.9,27.63l1.35,4.24h4.37l-3.53,2.6,1.35,4.25-3.54-2.6-3.53,2.6,1.34-4.25-3.53-2.6h4.37Z"/><path id="Trazado_192" data-name="Trazado 192" class="cls-1" d="M67.9,48.32l1.35,4.24h4.37l-3.53,2.6,1.35,4.25-3.54-2.6-3.53,2.6,1.34-4.25-3.53-2.6h4.37Z"/><path id="Trazado_193" data-name="Trazado 193" class="cls-1" d="M67.9,69l1.35,4.25h4.37l-3.53,2.6L71.44,80l-3.54-2.6L64.37,80l1.34-4.24-3.53-2.6h4.37Z"/><path id="Trazado_194" data-name="Trazado 194" class="cls-1" d="M67.9,89.59l1.35,4.24h4.37l-3.53,2.6,1.35,4.25-3.54-2.6-3.53,2.6,1.34-4.25-3.53-2.6h4.37Z"/><path id="Trazado_195" data-name="Trazado 195" class="cls-1" d="M91.86,7l1.35,4.24h4.37l-3.53,2.6,1.34,4.25-3.53-2.6-3.54,2.6,1.35-4.25-3.53-2.6h4.37Z"/><path id="Trazado_196" data-name="Trazado 196" class="cls-1" d="M91.86,27.63l1.35,4.24h4.37l-3.53,2.6,1.34,4.25-3.53-2.6-3.54,2.6,1.35-4.25-3.53-2.6h4.37Z"/><path id="Trazado_197" data-name="Trazado 197" class="cls-1" d="M91.86,48.32l1.35,4.24h4.37l-3.53,2.6,1.34,4.25-3.53-2.6-3.54,2.6,1.35-4.25-3.53-2.6h4.37Z"/><path id="Trazado_198" data-name="Trazado 198" class="cls-1" d="M91.86,69l1.35,4.25h4.37l-3.53,2.6L95.39,80l-3.53-2.6L88.32,80l1.35-4.24-3.53-2.6h4.37Z"/><path id="Trazado_199" data-name="Trazado 199" class="cls-1" d="M91.86,89.59l1.35,4.24h4.37l-3.53,2.6,1.34,4.25-3.53-2.6-3.54,2.6,1.35-4.25-3.53-2.6h4.37Z"/><path id="Trazado_200" data-name="Trazado 200" class="cls-1" d="M115.82,7l1.34,4.24h4.38L118,13.88l1.35,4.25-3.53-2.6-3.54,2.6,1.35-4.25-3.54-2.6h4.38Z"/><path id="Trazado_201" data-name="Trazado 201" class="cls-1" d="M115.82,27.63l1.34,4.24h4.38L118,34.47l1.35,4.25-3.53-2.6-3.54,2.6,1.35-4.25-3.54-2.6h4.38Z"/><path id="Trazado_202" data-name="Trazado 202" class="cls-1" d="M115.82,48.32l1.34,4.24h4.38L118,55.16l1.35,4.25-3.53-2.6-3.54,2.6,1.35-4.25-3.54-2.6h4.38Z"/><path id="Trazado_203" data-name="Trazado 203" class="cls-1" d="M115.82,69l1.34,4.25h4.38L118,75.8,119.35,80l-3.53-2.6L112.28,80l1.35-4.24-3.54-2.6h4.38Z"/><path id="Trazado_204" data-name="Trazado 204" class="cls-1" d="M115.82,89.59l1.34,4.24h4.38L118,96.43l1.35,4.25-3.53-2.6-3.54,2.6,1.35-4.25-3.54-2.6h4.38Z"/><path id="Trazado_205" data-name="Trazado 205" class="cls-1" d="M140.26,7l1.35,4.24H146l-3.53,2.6,1.35,4.25-3.54-2.6-3.53,2.6,1.35-4.25-3.54-2.6h4.37Z"/><path id="Trazado_206" data-name="Trazado 206" class="cls-1" d="M140.26,27.63l1.35,4.24H146l-3.53,2.6,1.35,4.25-3.54-2.6-3.53,2.6,1.35-4.25-3.54-2.6h4.37Z"/><path id="Trazado_207" data-name="Trazado 207" class="cls-1" d="M140.26,48.32l1.35,4.24H146l-3.53,2.6,1.35,4.25-3.54-2.6-3.53,2.6,1.35-4.25-3.54-2.6h4.37Z"/><path id="Trazado_208" data-name="Trazado 208" class="cls-1" d="M140.26,69l1.35,4.25H146l-3.53,2.6L143.8,80l-3.54-2.6L136.73,80l1.35-4.24-3.54-2.6h4.37Z"/><path id="Trazado_209" data-name="Trazado 209" class="cls-1" d="M140.26,89.59l1.35,4.24H146l-3.53,2.6,1.35,4.25-3.54-2.6-3.53,2.6,1.35-4.25-3.54-2.6h4.37Z"/></g></g></g></g></svg>