<svg xmlns="http://www.w3.org/2000/svg" viewBox="0 0 287.19 197.09"><defs><style>.cls-1{fill:#fff;}.cls-2{fill:#6ba1d7;}.cls-3{fill:#f49738;}.cls-4{fill:#f9c553;}</style></defs><g id="Capa_3" data-name="Capa 3"><rect id="Rectángulo_86" data-name="Rectángulo 86" class="cls-1" x="6.21" y="65.69" width="275.9" height="63.45"/><rect id="Rectángulo_12" data-name="Rectángulo 12" class="cls-2" x="6.21" y="2.25" width="275.9" height="63.44"/><rect id="Rectángulo_13" data-name="Rectángulo 13" class="cls-2" x="6.21" y="129.15" width="275.9" height="63.44"/><path class="cls-3" d="M162.76,92.82H160a16.33,16.33,0,0,0-1.37-3.33l2-2A4.6,4.6,0,0,0,154.08,81l-2,2a16.25,16.25,0,0,0-3.32-1.37V78.84a4.6,4.6,0,0,0-9.19,0v2.81A16.14,16.14,0,0,0,136.27,83l-2-2a4.6,4.6,0,0,0-7.06,5.89,4.7,4.7,0,0,0,.59.59l2,2a16.18,16.18,0,0,0-1.37,3.34h-2.81a4.6,4.6,0,0,0,0,9.19h2.81a16.25,16.25,0,0,0,1.37,3.32l-2,2a4.6,4.6,0,0,0,6.47,6.48l2-2a16.71,16.71,0,0,0,3.33,1.38V116a4.6,4.6,0,0,0,9.19,0v-2.82a16.25,16.25,0,0,0,3.32-1.37l2,2a4.6,4.6,0,0,0,6.48-6.48l-2-2A16.18,16.18,0,0,0,160,102h2.81a4.6,4.6,0,0,0,0-9.19Z"/><path class="cls-4" d="M136.87,97.42a7.27,7.27,0,1,1,7.27,7.27,7.26,7.26,0,0,1-7.27-7.27Z"/></g></svg>